<?xml version="1.0" encoding="utf-8"?>
<!DOCTYPE svg PUBLIC "-//W3C//DTD SVG 20010904//EN" "http://www.w3.org/TR/2001/REC-SVG-20010904/DTD/svg10.dtd">
<svg version="1.0" xmlns="http://www.w3.org/2000/svg" width="642pt" height="54pt" viewBox="0 0 642 54" style="" preserveAspectRatio="xMidYMid meet">
<g fill="#FFFFFFFF" stroke="#FFFFFFFF">
<path d="M 1.000 27.000 L 1.000 53.000 321.000 53.000 L 641.000 53.000 641.000 27.000 L 641.000 1.000 321.000 1.000 L 1.000 1.000 1.000 27.000 M 639.000 10.392 C 639.000 12.212 637.304 12.572 619.500 14.523 C 595.304 17.176 596.093 16.865 606.488 19.659 C 616.449 22.337 617.908 23.201 616.114 25.363 C 613.686 28.289 597.646 29.933 547.000 32.447 C 493.813 35.088 440.462 36.237 373.000 36.196 C 263.876 36.130 201.121 33.722 54.000 23.955 C 31.195 22.441 3.684 20.017 3.140 19.474 C 1.638 17.972 30.611 19.233 106.000 23.953 C 189.014 29.149 212.901 30.308 273.000 32.051 C 313.468 33.224 418.488 33.513 452.568 32.545 C 541.237 30.026 598.901 27.272 609.000 25.074 L 612.500 24.312 608.000 23.011 C 605.525 22.296 599.731 20.923 595.124 19.961 C 587.350 18.337 584.074 16.526 585.796 14.804 C 586.188 14.412 594.382 13.362 604.005 12.471 C 613.627 11.581 623.750 10.488 626.500 10.043 C 634.749 8.708 639.000 8.827 639.000 10.392 "/></g>
<g fill="#000000FF" stroke="#000000FF">
<path d="M 22.016 20.338 C 22.981 21.324 142.480 28.955 196.500 31.480 C 297.266 36.189 450.136 36.645 529.500 32.473 C 589.331 29.328 610.626 27.729 612.000 26.278 C 612.275 25.987 610.025 26.029 607.000 26.371 C 594.342 27.802 574.366 29.009 539.500 30.450 C 519.150 31.291 498.000 32.199 492.500 32.468 C 487.000 32.737 446.725 33.252 403.000 33.614 C 285.946 34.580 230.644 32.840 83.000 23.543 C 28.667 20.122 21.433 19.742 22.016 20.338 "/></g>
<g fill="#000000FF" stroke="#000000FF">
<path d="M 624.500 11.124 C 621.200 11.607 611.570 12.670 603.100 13.485 C 594.630 14.300 587.460 15.207 587.167 15.500 C 586.069 16.598 588.694 17.767 594.909 18.946 C 604.961 20.855 614.147 23.953 613.390 25.179 C 613.006 25.799 613.287 26.071 614.048 25.817 C 617.319 24.727 615.508 23.145 608.665 21.114 C 604.596 19.906 599.632 18.652 597.633 18.328 C 591.917 17.400 593.358 16.316 601.250 15.606 C 618.876 14.020 636.577 11.716 637.450 10.894 C 638.608 9.804 632.800 9.907 624.500 11.124 "/></g>
</svg>
