<?xml version="1.0" standalone="no"?>
<!DOCTYPE svg PUBLIC "-//W3C//DTD SVG 20010904//EN"
 "http://www.w3.org/TR/2001/REC-SVG-20010904/DTD/svg10.dtd">
<svg version="1.0" xmlns="http://www.w3.org/2000/svg"
 width="900.000000pt" height="900.000000pt" viewBox="0 0 900.000000 900.000000"
 preserveAspectRatio="xMidYMid meet">
<metadata>
Created by potrace 1.10, written by Peter Selinger 2001-2011
</metadata>
<g transform="translate(0.000000,900.000000) scale(0.100000,-0.100000)"
fill="#000000" stroke="none">
<path d="M3975 6899 c-468 -50 -667 -63 -834 -57 l-130 6 -233 -140 c-128 -77
-243 -144 -256 -149 -13 -5 -20 -13 -17 -19 9 -14 113 -12 283 5 81 9 158 13
171 10 l23 -6 -6 -142 c-4 -78 -11 -581 -17 -1117 -6 -536 -14 -1033 -18
-1105 -4 -72 -4 -138 1 -147 8 -16 29 -18 233 -18 215 0 225 1 235 20 7 12 15
148 20 338 6 174 14 468 20 652 6 184 15 605 21 934 6 403 13 604 21 613 17
21 400 18 498 -3 81 -18 206 -53 230 -64 8 -4 26 -12 40 -18 69 -27 192 -91
251 -132 164 -111 265 -241 325 -420 28 -82 25 -402 -4 -510 -55 -201 -114
-313 -230 -432 l-65 -66 7 -47 c4 -26 14 -49 22 -52 16 -6 117 41 178 82 20
14 39 25 41 25 20 0 188 134 263 209 158 161 249 321 297 520 27 110 25 340
-3 441 -35 125 -76 220 -117 270 -6 8 -14 22 -17 30 -3 8 -35 50 -72 92 -59
69 -145 145 -231 205 -47 32 -216 115 -260 127 -11 3 -51 14 -90 26 -154 46
-376 60 -580 39z"/>
<path d="M4271 5005 c-28 -42 -51 -78 -51 -82 0 -3 -17 -31 -38 -62 -21 -31
-55 -86 -75 -122 l-37 -66 0 -314 c0 -232 3 -318 12 -327 19 -19 678 -17 678
2 0 7 -37 69 -83 137 -46 68 -95 147 -109 175 -15 27 -35 66 -45 85 -28 49
-110 255 -128 319 -24 89 -55 249 -55 285 0 19 -4 36 -9 39 -5 3 -32 -28 -60
-69z"/>
<path d="M6615 4966 c-5 -2 -37 -9 -70 -16 -112 -23 -224 -71 -375 -161 -71
-42 -111 -86 -68 -76 12 3 84 9 158 12 106 6 139 4 153 -7 29 -22 49 -185 56
-453 l6 -240 112 -3 c99 -2 113 -1 122 15 5 10 12 185 16 388 4 204 12 378 17
387 5 10 25 26 46 36 117 57 154 91 116 106 -19 7 -274 18 -289 12z"/>
<path d="M3831 4577 c-24 -18 -43 -36 -43 -42 1 -5 22 -14 48 -19 36 -7 48 -5
55 5 12 18 7 82 -6 85 -5 1 -30 -12 -54 -29z"/>
<path d="M4676 4542 c-5 -8 36 -95 79 -170 25 -42 144 -220 156 -233 8 -8 27
-32 44 -54 16 -22 36 -45 45 -52 19 -15 160 -17 160 -2 0 5 -60 73 -132 150
-73 78 -167 177 -207 222 -117 128 -139 149 -145 139z"/>
<path d="M3087 3873 c-4 -3 -7 -78 -7 -165 0 -88 -4 -168 -10 -178 -8 -15 -6
-20 10 -25 11 -3 24 -4 28 -1 5 3 10 65 11 138 4 183 9 212 42 216 18 2 36 -7
59 -28 29 -27 32 -35 27 -70 -6 -44 -5 -45 24 -30 14 8 19 21 19 54 0 46 -13
63 -63 84 -30 13 -129 16 -140 5z"/>
<path d="M3484 3868 c-5 -7 -9 -92 -9 -188 l0 -175 44 -3 c48 -4 97 5 87 15
-3 3 -23 9 -43 12 l-38 6 0 65 c-1 36 3 71 8 78 5 6 25 12 44 12 19 0 32 4 29
9 -3 4 -16 6 -29 4 -13 -3 -28 2 -35 10 -13 15 -19 118 -8 136 4 6 29 11 56
11 27 0 52 5 55 10 10 15 -150 13 -161 -2z"/>
<path d="M3970 3873 c1 -14 50 -44 60 -38 15 9 12 32 -6 39 -22 8 -54 8 -54
-1z"/>
<path d="M4793 3867 c-6 -11 23 -37 42 -37 21 0 67 -58 75 -95 5 -20 6 -62 3
-92 -8 -72 11 -69 38 7 18 52 18 58 3 107 -9 28 -28 62 -43 76 -30 28 -107 51
-118 34z"/>
<path d="M5047 3874 c-14 -14 6 -24 48 -24 31 0 45 -5 50 -17 3 -10 5 -88 4
-173 -2 -141 0 -155 16 -158 24 -5 41 13 28 30 -6 8 -7 35 -2 73 4 33 8 95 8
138 1 104 9 117 71 117 27 0 52 5 55 10 7 11 -267 15 -278 4z"/>
<path d="M5446 3872 c-3 -5 -6 -89 -7 -188 l-2 -179 43 -3 c52 -4 93 5 85 18
-3 6 -24 10 -46 10 l-39 0 0 64 c0 88 4 96 52 96 23 0 37 4 33 10 -3 6 -21 10
-39 10 -36 0 -46 15 -46 75 0 68 7 75 71 75 32 0 61 5 64 10 4 6 -25 10 -79
10 -47 0 -87 -4 -90 -8z"/>
<path d="M5872 3863 c2 -10 13 -19 26 -21 24 -4 29 7 10 26 -18 18 -40 15 -36
-5z"/>
<path d="M4467 3863 c-3 -5 -5 -64 -6 -133 -1 -68 -4 -126 -7 -130 -11 -10
-192 188 -204 224 -12 37 -17 41 -36 28 -15 -9 -23 -335 -9 -342 6 -3 11 36
13 105 1 60 6 113 11 118 8 8 201 -179 201 -195 0 -15 39 -8 48 10 13 25 16
322 3 322 -5 0 -12 -3 -14 -7z"/>
<path d="M4632 3770 c-31 -41 -34 -141 -7 -187 36 -61 132 -101 175 -73 13 8
11 11 -7 16 -53 15 -109 53 -130 90 -25 42 -30 112 -12 145 18 35 5 41 -19 9z"/>
<path d="M5736 3778 c-24 -33 3 -68 85 -111 24 -13 53 -37 64 -55 24 -37 39
-36 43 2 3 27 -21 66 -41 66 -6 0 -32 14 -59 31 -35 23 -51 40 -55 60 -7 35
-17 36 -37 7z"/>
<path d="M3783 3778 c-19 -30 -32 -59 -37 -85 -8 -33 16 -107 42 -136 40 -44
128 -70 176 -51 26 10 18 24 -12 24 -38 0 -112 39 -136 73 -17 23 -20 42 -19
107 1 44 0 80 -2 80 -2 0 -7 -6 -12 -12z"/>
<path d="M4036 3691 c-10 -16 6 -132 18 -128 18 6 31 104 16 122 -14 17 -26
19 -34 6z"/>
<path d="M3187 3678 c-14 -12 -7 -22 61 -97 56 -60 83 -82 97 -79 11 2 20 8
20 14 0 10 -149 174 -158 174 -2 0 -11 -6 -20 -12z"/>
<path d="M5716 3551 c-18 -28 26 -57 75 -49 31 4 37 28 7 28 -13 0 -33 7 -44
15 -22 17 -31 18 -38 6z"/>
<path d="M2896 3348 c-8 -13 -18 -54 -21 -93 -11 -129 -58 -357 -78 -384 -12
-14 -100 -73 -157 -104 -38 -21 -52 -36 -44 -49 7 -12 528 -10 602 2 72 12
276 78 367 120 33 15 98 44 145 65 142 65 165 78 168 103 l3 22 -211 0 c-182
0 -375 12 -418 25 -8 3 -2 21 21 57 50 78 97 191 97 230 0 9 -7 19 -16 22 -9
3 -112 6 -230 6 -210 0 -214 0 -228 -22z"/>
<path d="M4076 3362 c-3 -5 -7 -107 -11 -228 -15 -587 -36 -960 -67 -1209 -6
-49 -14 -112 -17 -140 -6 -49 -8 -51 -96 -118 -49 -38 -91 -73 -93 -78 -2 -5
46 -9 110 -9 110 0 278 24 358 51 46 15 182 81 245 119 28 16 61 34 74 40 13
6 21 13 18 16 -3 4 -103 7 -221 8 -140 1 -219 5 -226 12 -8 8 4 35 43 95 44
68 57 97 66 154 32 183 73 1253 50 1281 -13 16 -224 21 -233 6z"/>
<path d="M4766 3353 c-7 -17 235 -263 519 -528 337 -314 556 -532 650 -649
189 -234 283 -370 358 -521 52 -105 69 -118 85 -62 22 75 126 290 188 389 13
20 24 41 24 45 0 3 7 14 15 23 19 21 31 168 45 550 5 140 14 323 20 405 6 83
10 197 8 255 l-3 105 -97 3 c-85 2 -98 0 -106 -15 -6 -10 -15 -160 -21 -333
-19 -512 -34 -724 -51 -718 -5 2 -35 37 -67 79 -122 161 -287 336 -594 633
-258 249 -313 302 -347 329 l-34 27 -293 0 c-264 0 -293 -2 -299 -17z"/>
<path d="M5660 3355 c0 -19 516 -529 538 -532 10 -2 28 6 41 16 22 17 25 29
31 107 4 49 3 98 -1 109 -5 14 -27 26 -70 39 -91 28 -161 72 -264 169 -49 46
-100 89 -112 95 -12 7 -53 12 -92 12 -57 0 -71 -3 -71 -15z"/>
</g>
</svg>
